<svg xmlns="http://www.w3.org/2000/svg" height="800" width="1200" viewBox="-37.16925 -23.13775 322.1335 138.8265">
  <path d="M.163 67.794V50.903c0-7.799 3.952-11.277 12.809-11.277 3.396 0 7.688.424 10.432 1.029 0 0 .117.024.25.052-.066.588-.327 2.77-.407 3.437a25.959 25.959 0 01-.287-.046c-2.565-.411-6.371-.903-9.93-.903-6.696 0-8.956 1.96-8.956 7.768v16.776c0 5.033 1.382 7.762 8.673 7.762 1.785 0 4.766-.188 7.291-.727l.358-.077v-13.42h3.909v16.135c-.096.027-.205.059-.205.059-3.445 1.003-7.779 1.598-11.582 1.598C3.859 79.067.163 75.695.163 67.794zm64.967 0v-28.18c.669.006 3.248.038 3.905.044v28.08c0 5.033 1.382 7.762 8.673 7.762h11.079v3.482c-.83.004-11.297.085-11.307.085-8.656 0-12.35-3.372-12.35-11.273zm93.038-27.601h.524c-.857 1.305-12.428 18.872-12.428 18.872s11.963 18.129 12.828 19.435h-4.304c-.264-.395-10.678-16.26-10.678-16.26s-10.408 15.865-10.671 16.26h-4.303c.864-1.306 12.827-19.435 12.827-19.435s-11.57-17.567-12.431-18.872h4.305c.262.397 10.272 15.69 10.272 15.69s10.018-15.293 10.28-15.69h3.779zm33.344 0h.452c-.609 1.245-13.034 26.475-13.034 26.475V78.5h-3.908V66.668s-12.424-25.23-13.035-26.475h4.088c.237.498 10.875 22.42 10.875 22.42s10.686-21.924 10.93-22.42h3.632zM57.416 78.5h3.882c-.402-1.153-13.14-37.717-13.344-38.307h-5.331c-.204.59-12.942 37.153-13.347 38.307h3.885c.238-.678 2.325-6.745 4.701-13.657h14.836c2.474 7.171 4.633 13.42 4.718 13.657zM39.085 61.276c3.071-8.936 6.175-17.99 6.175-17.99s3.126 9.058 6.205 17.99zM121.687 78.5h3.884c-.402-1.153-13.139-37.717-13.344-38.307h-5.332c-.203.59-12.944 37.153-13.347 38.307h3.887c.24-.678 2.324-6.745 4.702-13.657h14.832c2.474 7.171 4.633 13.42 4.718 13.657zm-18.329-17.224c3.068-8.936 6.175-17.99 6.175-17.99s3.126 9.058 6.204 17.99zM4.292 13.458c-.826-.281-1.496-.663-2.011-1.14-.515-.478-.916-1.001-1.198-1.565a6.6611 6.6611 0 01-.599-1.818C.367 8.29.309 7.657.309 7.04v-.541c0-2.087.586-3.694 1.762-4.815C3.241.563 5.027 0 7.425 0h1.353c1.855 0 3.325.42 4.408 1.258 1.083.837 1.625 2.21 1.625 4.118 0 .386-.104.715-.31.986-.208.269-.568.405-1.083.405-.516 0-.876-.136-1.083-.405-.206-.271-.31-.601-.31-.986 0-.979-.294-1.681-.889-2.107-.592-.426-1.38-.64-2.358-.64H7.425c-1.546 0-2.657.305-3.326.909-.671.606-1.005 1.592-1.005 2.96v.541c0 1.032.18 1.862.541 2.491.361.634.98 1.105 1.856 1.412l5.993 2.128c1.418.517 2.489 1.335 3.21 2.455.722 1.122 1.083 2.496 1.083 4.12v1.311c0 2.091-.588 3.76-1.76 5.011-1.173 1.25-2.958 1.876-5.355 1.876H6.033c-1.856 0-3.326-.42-4.41-1.258C.542 25.749 0 24.375 0 22.467c0-.388.102-.714.308-.983.207-.273.567-.408 1.083-.408.517 0 .876.135 1.084.408.205.269.31.595.31.983 0 .981.295 1.683.89 2.108.589.424 1.377.639 2.358.639h2.629c1.546 0 2.653-.369 3.325-1.103.67-.735 1.004-1.784 1.004-3.154v-1.311c0-.98-.181-1.806-.541-2.477-.361-.667-.916-1.146-1.663-1.429zM27.569 7.35c1.856 0 3.318.534 4.39 1.605 1.069 1.068 1.604 2.455 1.604 4.155v12.953c0 .388-.104.715-.309.987-.207.271-.567.407-1.082.407h-6.187c-1.855 0-3.318-.407-4.389-1.221-1.071-.809-1.604-2.067-1.604-3.769v-3.133c0-1.698.534-2.958 1.604-3.77 1.071-.811 2.534-1.219 4.389-1.219h4.872v-1.158c0-1.212-.302-2.063-.909-2.551-.606-.49-1.398-.736-2.378-.736h-4.331c-.362 0-.67-.097-.927-.292-.26-.193-.388-.522-.388-.984 0-.465.128-.793.388-.986.257-.193.565-.29.927-.29h4.33zm3.287 17.553V16.9h-4.872c-.98 0-1.773.21-2.378.638-.606.426-.908 1.049-.908 1.875v3.054c0 .772.301 1.373.908 1.798.605.425 1.398.638 2.378.638zm26.68-10.671c0-1.366-.335-2.43-1.006-3.191-.67-.761-1.777-1.14-3.324-1.14h-2.167V26.45c0 .386-.094.716-.289.987-.193.27-.549.406-1.064.406-.514 0-.869-.136-1.062-.406-.194-.271-.29-.601-.29-.987V9.901h-6.497V26.45c0 .386-.096.716-.292.987-.193.27-.547.406-1.063.406-.516 0-.87-.136-1.063-.406-.193-.271-.291-.601-.291-.987V8.742c0-.387.098-.716.291-.987.194-.272.548-.405 1.063-.405h12.721c2.397 0 4.169.625 5.317 1.876 1.146 1.248 1.72 2.917 1.72 5.006V26.41c0 .388-.095.718-.289.987-.193.271-.547.406-1.064.406-.515 0-.869-.134-1.064-.406-.191-.269-.289-.599-.289-.987V14.232zm13.03 13.612c-1.701 0-3.048-.357-4.041-1.066-.992-.708-1.488-1.835-1.488-3.382 0-.388.095-.714.288-.987.193-.269.548-.404 1.064-.404s.863.135 1.044.404c.179.273.284.6.309.987.079 1.313 1.021 1.971 2.823 1.971h1.972c.981 0 1.773-.226 2.378-.676.606-.45.909-1.063.909-1.834v-1.625c0-.59-.168-1.075-.503-1.451-.334-.374-.799-.637-1.392-.793l-5.298-1.391c-1.057-.283-1.875-.799-2.456-1.546-.579-.747-.869-1.741-.869-2.978v-1.122c0-1.7.534-2.957 1.604-3.769 1.068-.813 2.534-1.219 4.389-1.219h1.003c1.703 0 3.05.356 4.041 1.064.992.71 1.49 1.837 1.49 3.383 0 .386-.096.716-.291.987-.193.271-.546.404-1.062.404-.517 0-.864-.132-1.046-.404-.18-.271-.285-.601-.308-.987-.079-1.315-1.019-1.972-2.825-1.972h-1.003c-.98 0-1.772.227-2.378.675-.605.453-.909 1.065-.909 1.838v1.122c0 .591.174 1.083.523 1.469.348.387.817.657 1.41.811l5.259 1.354c1.084.285 1.907.802 2.476 1.548.566.747.853 1.74.853 2.978v1.625c0 1.701-.536 2.956-1.607 3.771-1.07.811-2.533 1.217-4.389 1.217h-1.97zm15.466-7.271c0 1.367.335 2.429 1.005 3.188.671.761 1.78 1.142 3.327 1.142h4.407V8.355c0-.387.096-.716.29-.986.194-.27.547-.407 1.065-.407.514 0 .868.136 1.062.407.194.271.292.6.292.986v17.708c0 .388-.099.715-.292.987-.193.271-.548.407-1.062.407h-5.763c-2.398 0-4.17-.626-5.317-1.875-1.147-1.25-1.72-2.922-1.72-5.009V8.392c0-.385.097-.715.29-.984.192-.272.547-.41 1.063-.41.516 0 .869.138 1.063.41.193.269.289.599.289.984v12.181zm28.769-6.341c0-1.366-.334-2.43-1.005-3.191-.672-.761-1.778-1.14-3.324-1.14h-4.409V26.45c0 .386-.096.716-.289.987-.194.27-.55.406-1.063.406-.516 0-.87-.136-1.065-.406-.19-.271-.287-.601-.287-.987V8.742c0-.387.097-.716.287-.987.195-.272.55-.405 1.065-.405h5.762c2.396 0 4.169.625 5.316 1.876 1.146 1.248 1.721 2.917 1.721 5.006V26.41c0 .388-.098.718-.293.987-.19.271-.545.406-1.063.406-.512 0-.869-.134-1.061-.406-.193-.269-.291-.599-.291-.987V14.232zm21.961 15.426c0 1.085-.145 2.075-.441 2.979-.299.902-.75 1.687-1.355 2.358-.603.671-1.353 1.192-2.242 1.567-.888.372-1.927.56-3.111.56h-3.559c-.359 0-.671-.096-.929-.292-.258-.188-.388-.52-.388-.983 0-.467.13-.792.388-.988.258-.192.569-.291.929-.291h3.559c1.546 0 2.672-.464 3.381-1.391.711-.929 1.065-2.103 1.065-3.52v-2.202h-4.408c-2.396 0-4.171-.626-5.316-1.875-1.148-1.25-1.721-2.922-1.721-5.009V14.81c0-1.083.147-2.075.444-2.979.298-.9.747-1.687 1.354-2.359.604-.667 1.353-1.191 2.241-1.564.89-.375 1.928-.561 3.113-.561h5.647c.516 0 .87.133 1.063.405.194.271.287.6.287.987v20.919zm-6.997-19.757c-1.545 0-2.674.464-3.383 1.391-.708.929-1.063 2.103-1.063 3.52v5.761c0 1.367.336 2.429 1.008 3.188.668.761 1.775 1.142 3.323 1.142h4.408V9.901zm103.631 48.942c-.178.008-4.4.38-8.977 1.069-3.763.563-5.815.467-7.176.287-2.874-.491-4.815-1.625-5.492-3.445-2.331-6.269 11.164-18.246 30.147-26.749 1.993-.892 3.958-1.709 5.897-2.453-3.38 1.078-6.878 2.342-10.438 3.792-21.322 8.678-36.613 20.604-34.159 26.641 1.238 3.043 6.753 4.003 14.652 3.101.014-.004.033-.004.048-.004 4.595-.431 10.096-1.572 13.504-1.296 3.319.41 5.563 1.581 6.3 3.564 2.329 6.27-11.168 18.245-30.149 26.751-1.986.891-3.958 1.71-5.896 2.45 3.38-1.072 6.878-2.344 10.439-3.79 21.321-8.675 36.612-20.604 34.157-26.643-1.139-2.804-5.923-3.841-12.857-3.275z" fill="#FFF"/>
</svg>